<svg xmlns="http://www.w3.org/2000/svg" xmlns:xlink="http://www.w3.org/1999/xlink" width="500" zoomAndPan="magnify" viewBox="0 0 375 374.999991" height="500" preserveAspectRatio="xMidYMid meet" version="1.0"><defs><g/><clipPath id="id1"><path d="M 0 0.703125 L 375 0.703125 L 375 374.203125 L 0 374.203125 Z M 0 0.703125 " clip-rule="nonzero"/></clipPath><clipPath id="id2"><path d="M 107.796875 218 L 267.546875 218 L 267.546875 234.25 L 107.796875 234.25 Z M 107.796875 218 " clip-rule="nonzero"/></clipPath><clipPath id="id3"><path d="M 167 85.75 L 194 85.75 L 194 157 L 167 157 Z M 167 85.75 " clip-rule="nonzero"/></clipPath><clipPath id="id4"><path d="M 29.117188 180 L 46 180 L 46 213.046875 L 29.117188 213.046875 Z M 29.117188 180 " clip-rule="nonzero"/></clipPath><clipPath id="id5"><path d="M 38 179.296875 L 55.367188 179.296875 L 55.367188 213 L 38 213 Z M 38 179.296875 " clip-rule="nonzero"/></clipPath><clipPath id="id6"><path d="M 319.597656 180 L 337 180 L 337 213.046875 L 319.597656 213.046875 Z M 319.597656 180 " clip-rule="nonzero"/></clipPath><clipPath id="id7"><path d="M 329 179.296875 L 345.847656 179.296875 L 345.847656 213 L 329 213 Z M 329 179.296875 " clip-rule="nonzero"/></clipPath></defs><g clip-path="url(#id1)"><path fill="#ffffff" d="M 187.542969 357.046875 C 93.851562 357.046875 17.894531 281.121094 17.894531 187.457031 C 17.894531 93.78125 93.851562 17.855469 187.542969 17.855469 C 281.234375 17.855469 357.191406 93.78125 357.191406 187.457031 C 357.191406 281.121094 281.234375 357.046875 187.542969 357.046875 Z M 367.261719 201.402344 C 365.914062 200.398438 363.464844 198.5625 363.050781 197.679688 C 363.566406 196.863281 366.082031 195.398438 367.617188 194.503906 C 371.152344 192.445312 374.5 190.511719 374.5 187.457031 C 374.5 184.390625 371.152344 182.445312 367.605469 180.386719 C 366.082031 179.492188 363.566406 178.039062 363.050781 177.222656 C 363.464844 176.339844 365.816406 174.574219 367.261719 173.5 C 370.515625 171.058594 373.589844 168.753906 373.234375 165.757812 C 372.894531 162.722656 369.351562 161.183594 365.601562 159.539062 C 363.96875 158.832031 361.308594 157.667969 360.691406 156.910156 C 361.003906 155.980469 363.140625 153.96875 364.4375 152.738281 C 367.394531 149.941406 370.175781 147.289062 369.484375 144.351562 C 368.789062 141.371094 365.101562 140.253906 361.183594 139.070312 C 359.484375 138.554688 356.683594 137.707031 356.003906 137.019531 C 356.203125 136.074219 358.085938 133.8125 359.226562 132.449219 C 361.832031 129.316406 364.292969 126.359375 363.265625 123.519531 C 362.226562 120.644531 358.421875 119.964844 354.390625 119.246094 C 352.648438 118.9375 349.773438 118.421875 349 117.828125 C 349.089844 116.851562 350.703125 114.394531 351.671875 112.894531 C 353.898438 109.480469 356.003906 106.261719 354.640625 103.554688 C 353.273438 100.839844 349.425781 100.601562 345.351562 100.355469 C 343.570312 100.246094 340.644531 100.066406 339.8125 99.558594 C 339.789062 98.589844 341.089844 95.972656 341.886719 94.371094 C 343.710938 90.726562 345.417969 87.269531 343.75 84.742188 C 342.074219 82.191406 338.226562 82.402344 334.152344 82.640625 C 332.375 82.738281 329.441406 82.894531 328.570312 82.492188 C 328.421875 81.53125 329.421875 78.769531 330.027344 77.089844 C 331.402344 73.253906 332.710938 69.628906 330.753906 67.316406 C 328.808594 64.988281 325.011719 65.648438 320.984375 66.339844 C 319.230469 66.644531 316.34375 67.148438 315.414062 66.84375 C 315.164062 65.90625 315.839844 63.050781 316.238281 61.308594 C 317.167969 57.335938 318.042969 53.589844 315.839844 51.5 C 313.625 49.417969 309.929688 50.503906 306.027344 51.667969 C 304.304688 52.167969 301.492188 52.996094 300.542969 52.804688 C 300.183594 51.902344 300.523438 48.996094 300.722656 47.226562 C 301.191406 43.175781 301.632812 39.339844 299.191406 37.527344 C 296.753906 35.707031 293.214844 37.226562 289.457031 38.824219 C 287.820312 39.519531 285.113281 40.683594 284.15625 40.589844 C 283.695312 39.730469 283.695312 36.800781 283.683594 35.019531 C 283.683594 30.941406 283.671875 27.089844 281.03125 25.558594 C 278.398438 24.046875 275.066406 25.964844 271.535156 27.984375 C 269.980469 28.871094 267.429688 30.324219 266.453125 30.355469 C 265.90625 29.554688 265.558594 26.65625 265.34375 24.890625 C 264.867188 20.828125 264.40625 17 261.609375 15.792969 C 258.820312 14.585938 255.734375 16.878906 252.457031 19.296875 C 251.015625 20.359375 248.652344 22.113281 247.679688 22.246094 C 247.042969 21.519531 246.359375 18.691406 245.945312 16.960938 C 244.992188 12.988281 244.085938 9.230469 241.167969 8.359375 C 238.269531 7.484375 235.460938 10.113281 232.5 12.898438 C 231.277344 14.050781 229.050781 16.140625 228.101562 16.398438 C 227.371094 15.753906 226.367188 13.011719 225.75 11.34375 C 224.339844 7.503906 223.007812 3.878906 220.011719 3.367188 C 217.023438 2.820312 214.550781 5.773438 211.933594 8.878906 C 210.769531 10.257812 208.878906 12.507812 207.972656 12.875 C 207.179688 12.304688 205.859375 9.710938 205.0625 8.132812 C 203.207031 4.484375 201.460938 1.039062 198.40625 0.863281 C 195.386719 0.695312 193.273438 3.878906 191.035156 7.261719 C 190.105469 8.671875 188.40625 11.230469 187.542969 11.691406 C 186.679688 11.230469 184.980469 8.683594 184.050781 7.273438 C 181.8125 3.878906 179.652344 0.683594 176.679688 0.863281 C 173.625 1.039062 171.882812 4.484375 170.023438 8.132812 C 169.214844 9.710938 167.910156 12.304688 167.113281 12.867188 C 166.207031 12.507812 164.316406 10.257812 163.164062 8.894531 C 160.53125 5.773438 158.0625 2.828125 155.074219 3.367188 C 152.078125 3.878906 150.734375 7.503906 149.324219 11.34375 C 148.707031 13.011719 147.703125 15.753906 146.976562 16.398438 C 146.035156 16.140625 143.898438 14.128906 142.585938 12.90625 C 139.625 10.125 136.816406 7.484375 133.910156 8.359375 C 130.988281 9.230469 130.09375 12.976562 129.128906 16.949219 C 128.714844 18.679688 128.03125 21.519531 127.394531 22.246094 C 126.433594 22.101562 124.070312 20.359375 122.628906 19.308594 C 119.359375 16.878906 116.265625 14.585938 113.488281 15.792969 C 110.679688 17 110.21875 20.839844 109.742188 24.890625 C 109.527344 26.65625 109.179688 29.554688 108.632812 30.355469 C 107.648438 30.3125 105.109375 28.855469 103.550781 27.976562 C 100.019531 25.964844 96.671875 24.046875 94.042969 25.570312 C 91.414062 27.089844 91.402344 30.941406 91.390625 35.019531 C 91.390625 36.800781 91.382812 39.730469 90.925781 40.589844 C 89.960938 40.660156 87.265625 39.519531 85.617188 38.8125 C 81.871094 37.214844 78.335938 35.707031 75.894531 37.519531 C 73.457031 39.339844 73.894531 43.164062 74.363281 47.210938 C 74.5625 48.996094 74.890625 51.902344 74.542969 52.804688 C 73.59375 53.007812 70.773438 52.167969 69.058594 51.667969 C 65.15625 50.503906 61.460938 49.417969 59.246094 51.5 C 57.046875 53.589844 57.917969 57.335938 58.847656 61.308594 C 59.246094 63.039062 59.910156 65.894531 59.671875 66.84375 C 58.742188 67.136719 55.855469 66.644531 54.113281 66.328125 C 50.085938 65.636719 46.28125 64.976562 44.324219 67.304688 C 42.375 69.640625 43.683594 73.253906 45.058594 77.089844 C 45.664062 78.769531 46.652344 81.53125 46.515625 82.492188 C 45.632812 82.894531 42.710938 82.738281 40.921875 82.640625 C 36.859375 82.402344 33.011719 82.191406 31.347656 84.71875 C 29.667969 87.257812 31.375 90.703125 33.191406 94.359375 C 33.984375 95.960938 35.296875 98.589844 35.261719 99.558594 C 34.441406 100.066406 31.515625 100.246094 29.734375 100.355469 C 25.660156 100.601562 21.8125 100.839844 20.445312 103.554688 C 19.082031 106.261719 21.1875 109.46875 23.402344 112.882812 C 24.386719 114.382812 25.996094 116.84375 26.074219 117.816406 C 25.3125 118.410156 22.425781 118.9375 20.683594 119.246094 C 16.652344 119.964844 12.859375 120.644531 11.808594 123.519531 C 10.792969 126.351562 13.242188 129.304688 15.851562 132.425781 C 16.988281 133.800781 18.882812 136.074219 19.082031 137.019531 C 18.390625 137.707031 15.601562 138.542969 13.90625 139.058594 C 9.984375 140.253906 6.296875 141.371094 5.589844 144.351562 C 4.898438 147.289062 7.679688 149.929688 10.636719 152.726562 C 11.941406 153.96875 14.082031 155.992188 14.382812 156.910156 C 13.777344 157.667969 11.105469 158.832031 9.472656 159.550781 C 5.734375 161.183594 2.191406 162.722656 1.84375 165.746094 C 1.484375 168.753906 4.570312 171.058594 7.828125 173.5 C 9.257812 174.574219 11.621094 176.328125 12.035156 177.210938 C 11.519531 178.039062 9.003906 179.492188 7.480469 180.386719 C 3.933594 182.445312 0.597656 184.390625 0.597656 187.457031 C 0.597656 190.511719 3.933594 192.445312 7.46875 194.503906 C 9.003906 195.398438 11.519531 196.863281 12.035156 197.679688 C 11.621094 198.574219 9.171875 200.398438 7.828125 201.402344 C 4.558594 203.832031 1.484375 206.136719 1.84375 209.148438 C 2.191406 212.175781 5.734375 213.71875 9.484375 215.355469 C 11.105469 216.070312 13.777344 217.234375 14.382812 217.980469 C 14.082031 218.910156 11.929688 220.933594 10.636719 222.175781 C 7.679688 224.972656 4.898438 227.613281 5.589844 230.5625 C 6.296875 233.53125 9.984375 234.648438 13.90625 235.832031 C 15.601562 236.347656 18.390625 237.195312 19.082031 237.882812 C 18.882812 238.828125 17 241.089844 15.851562 242.464844 C 13.242188 245.597656 10.78125 248.542969 11.820312 251.402344 C 12.859375 254.253906 16.664062 254.9375 20.683594 255.65625 C 22.425781 255.964844 25.3125 256.480469 26.074219 257.085938 C 25.996094 258.050781 24.386719 260.519531 23.402344 262.019531 C 21.1875 265.433594 19.082031 268.640625 20.445312 271.359375 C 21.8125 274.074219 25.671875 274.3125 29.746094 274.558594 C 31.527344 274.65625 34.429688 274.835938 35.273438 275.34375 C 35.296875 276.3125 33.984375 278.941406 33.191406 280.542969 C 31.375 284.1875 29.667969 287.632812 31.335938 290.171875 C 33 292.699219 36.847656 292.488281 40.933594 292.261719 C 42.710938 292.164062 45.632812 292.007812 46.515625 292.410156 C 46.652344 293.371094 45.664062 296.125 45.058594 297.785156 C 43.675781 301.636719 42.363281 305.261719 44.324219 307.585938 C 46.28125 309.914062 50.085938 309.265625 54.101562 308.5625 C 55.855469 308.257812 58.742188 307.753906 59.660156 308.054688 C 59.921875 308.996094 59.246094 311.851562 58.847656 313.59375 C 57.917969 317.566406 57.046875 321.3125 59.246094 323.390625 C 61.453125 325.484375 65.144531 324.390625 69.050781 323.234375 C 70.773438 322.722656 73.59375 321.894531 74.542969 322.085938 C 74.890625 322.992188 74.5625 325.90625 74.363281 327.675781 C 73.894531 331.726562 73.457031 335.550781 75.894531 337.371094 C 78.324219 339.183594 81.871094 337.675781 85.617188 336.078125 C 87.253906 335.375 89.9375 334.253906 90.925781 334.308594 C 91.382812 335.160156 91.390625 338.089844 91.390625 339.882812 C 91.402344 343.960938 91.414062 347.808594 94.042969 349.332031 C 96.671875 350.855469 100.019531 348.9375 103.550781 346.917969 C 105.109375 346.03125 107.648438 344.578125 108.621094 344.546875 C 109.167969 345.347656 109.527344 348.257812 109.742188 350.023438 C 110.21875 354.074219 110.679688 357.898438 113.476562 359.121094 C 116.265625 360.304688 119.351562 358.023438 122.628906 355.605469 C 124.058594 354.542969 126.433594 352.800781 127.394531 352.65625 C 128.03125 353.378906 128.714844 356.222656 129.128906 357.953125 C 130.09375 361.925781 130.988281 365.671875 133.917969 366.542969 C 136.816406 367.410156 139.613281 364.777344 142.578125 361.996094 C 143.886719 360.773438 146.035156 358.761719 146.976562 358.503906 C 147.703125 359.148438 148.707031 361.890625 149.324219 363.558594 C 150.734375 367.398438 152.066406 371.007812 155.074219 371.542969 C 158.050781 372.0625 160.53125 369.128906 163.152344 366.019531 C 164.316406 364.644531 166.21875 362.394531 167.125 362.035156 C 167.910156 362.597656 169.226562 365.191406 170.023438 366.769531 C 171.882812 370.425781 173.625 373.875 176.679688 374.039062 C 176.75 374.050781 176.824219 374.050781 176.90625 374.050781 C 179.800781 374.050781 181.871094 370.917969 184.050781 367.621094 C 185.046875 366.121094 186.679688 363.660156 187.542969 363.203125 C 188.40625 363.660156 190.105469 366.230469 191.035156 367.628906 C 193.273438 371.023438 195.398438 374.1875 198.40625 374.039062 C 201.460938 373.875 203.207031 370.425781 205.050781 366.769531 C 205.859375 365.191406 207.179688 362.597656 207.960938 362.035156 C 208.878906 362.394531 210.847656 364.742188 211.933594 366.019531 C 214.550781 369.128906 217.023438 372.0625 220 371.542969 C 223.007812 371.007812 224.339844 367.398438 225.75 363.558594 C 226.367188 361.890625 227.371094 359.148438 228.101562 358.503906 C 229.050781 358.761719 231.277344 360.851562 232.5 362.003906 C 235.460938 364.777344 238.261719 367.410156 241.167969 366.542969 C 244.085938 365.671875 244.992188 361.914062 245.945312 357.945312 C 246.359375 356.222656 247.042969 353.378906 247.691406 352.65625 C 248.652344 352.789062 251.027344 354.542969 252.46875 355.605469 C 255.734375 358.023438 258.820312 360.304688 261.609375 359.109375 C 264.40625 357.898438 264.867188 354.074219 265.34375 350.011719 C 265.558594 348.246094 265.90625 345.347656 266.453125 344.546875 C 267.429688 344.578125 269.980469 346.046875 271.535156 346.925781 C 275.066406 348.949219 278.398438 350.855469 281.03125 349.34375 C 283.660156 347.808594 283.671875 343.960938 283.683594 339.882812 C 283.683594 338.101562 283.695312 335.171875 284.15625 334.324219 C 285.113281 334.242188 287.820312 335.382812 289.46875 336.089844 C 293.214844 337.6875 296.753906 339.199219 299.179688 337.371094 C 301.632812 335.550781 301.191406 331.726562 300.722656 327.667969 C 300.523438 325.898438 300.183594 323 300.542969 322.097656 C 301.492188 321.894531 304.304688 322.734375 306.015625 323.234375 C 309.929688 324.390625 313.625 325.484375 315.839844 323.390625 C 318.042969 321.3125 317.167969 317.566406 316.238281 313.59375 C 315.824219 311.863281 315.15625 309.007812 315.414062 308.054688 C 316.332031 307.753906 319.21875 308.257812 320.972656 308.5625 C 325 309.265625 328.796875 309.925781 330.742188 307.597656 C 332.710938 305.273438 331.402344 301.648438 330.027344 297.8125 C 329.421875 296.132812 328.421875 293.371094 328.570312 292.410156 C 329.441406 292.007812 332.375 292.175781 334.152344 292.273438 C 338.226562 292.5 342.074219 292.710938 343.742188 290.171875 C 345.417969 287.632812 343.710938 284.1875 341.886719 280.527344 C 341.101562 278.933594 339.789062 276.3125 339.8125 275.34375 C 340.652344 274.835938 343.5625 274.65625 345.34375 274.558594 C 349.414062 274.3125 353.273438 274.074219 354.628906 271.359375 C 356.003906 268.640625 353.898438 265.417969 351.671875 262.003906 C 350.703125 260.507812 349.089844 258.058594 349 257.085938 C 349.773438 256.480469 352.648438 255.964844 354.402344 255.65625 C 358.421875 254.9375 362.214844 254.253906 363.253906 251.394531 C 364.292969 248.542969 361.832031 245.585938 359.226562 242.464844 C 358.085938 241.089844 356.191406 238.828125 356.003906 237.882812 C 356.695312 237.195312 359.484375 236.347656 361.183594 235.832031 C 365.089844 234.648438 368.78125 233.53125 369.484375 230.5625 C 370.175781 227.613281 367.394531 224.972656 364.4375 222.164062 C 363.140625 220.933594 361.003906 218.910156 360.691406 217.980469 C 361.308594 217.234375 363.96875 216.070312 365.589844 215.363281 C 369.351562 213.71875 372.894531 212.175781 373.234375 209.148438 C 373.589844 206.136719 370.515625 203.84375 367.261719 201.402344 " fill-opacity="1" fill-rule="nonzero"/></g><path fill="#ba9563" d="M 187.542969 71.808594 C 123.757812 71.808594 71.871094 123.683594 71.871094 187.453125 C 71.871094 251.21875 123.757812 303.097656 187.542969 303.097656 C 251.328125 303.097656 303.21875 251.21875 303.21875 187.453125 C 303.21875 123.683594 251.328125 71.808594 187.542969 71.808594 Z M 187.542969 308.691406 C 120.675781 308.691406 66.277344 254.304688 66.277344 187.453125 C 66.277344 120.601562 120.675781 66.214844 187.542969 66.214844 C 254.410156 66.214844 308.8125 120.601562 308.8125 187.453125 C 308.8125 254.304688 254.410156 308.691406 187.542969 308.691406 " fill-opacity="1" fill-rule="nonzero"/><g clip-path="url(#id2)"><path fill="#ffffff" d="M 267.410156 218.761719 C 267.410156 218.761719 231.699219 234.257812 187.652344 234.257812 C 143.609375 234.257812 107.898438 218.761719 107.898438 218.761719 C 107.898438 218.761719 143.609375 218.761719 187.652344 218.761719 C 231.699219 218.761719 267.410156 218.761719 267.410156 218.761719 " fill-opacity="1" fill-rule="nonzero"/></g><path fill="#ba9563" d="M 145.570312 177.289062 C 152.046875 194.75 156.71875 198.660156 169.492188 205.382812 C 173.148438 207.300781 177.601562 209.449219 181.609375 210.367188 C 172.953125 212.585938 143.113281 204.863281 145.570312 177.289062 Z M 237.660156 164.339844 L 133.757812 164.339844 C 133.757812 164.339844 125.332031 223.53125 185.699219 223.53125 C 246.082031 223.53125 237.660156 164.339844 237.660156 164.339844 " fill-opacity="1" fill-rule="nonzero"/><path fill="#ba9563" d="M 225.941406 185.003906 C 225.941406 184.285156 226.316406 183.59375 226.667969 182.972656 C 227.03125 182.347656 227.445312 181.746094 227.890625 181.1875 C 228.761719 180.035156 229.753906 179.011719 230.773438 178 C 232.867188 176.023438 235.085938 174.21875 237.878906 172.757812 C 238.566406 172.390625 239.355469 172.078125 240.214844 171.796875 C 240.695312 171.679688 241.09375 171.53125 241.660156 171.457031 C 242.242188 171.414062 242.84375 171.3125 243.433594 171.398438 C 245.867188 171.5625 248.042969 172.953125 249.363281 174.558594 C 250.742188 176.175781 251.4375 178.03125 251.761719 179.839844 C 252.066406 181.660156 252.074219 183.480469 251.714844 185.207031 C 251.054688 188.667969 249.199219 191.78125 246.746094 193.980469 C 244.378906 196.1875 241.242188 197.558594 238.453125 198.246094 C 237.066406 198.609375 235.734375 198.867188 235.390625 199.160156 C 234.816406 199.566406 234.34375 200.488281 234.363281 201.503906 C 234.347656 202.507812 234.75 203.554688 235.527344 204.035156 C 235.957031 204.28125 236.316406 204.429688 236.777344 204.300781 C 237.21875 204.1875 237.589844 203.871094 237.710938 203.375 L 237.71875 203.347656 C 237.789062 203.070312 238.070312 202.898438 238.351562 202.96875 C 238.582031 203.027344 238.738281 203.226562 238.746094 203.453125 C 238.78125 204.328125 238.222656 205.242188 237.417969 205.675781 C 237.019531 205.910156 236.5625 206.042969 236.074219 206.070312 C 235.8125 206.085938 235.585938 206.042969 235.375 206.003906 C 235.152344 205.96875 234.929688 205.929688 234.722656 205.835938 C 232.953125 205.207031 231.914062 203.527344 231.5625 201.882812 C 231.179688 200.226562 231.433594 198.265625 232.703125 196.65625 C 233.023438 196.28125 233.402344 195.898438 233.855469 195.601562 C 234.265625 195.328125 234.644531 195.125 234.996094 194.949219 L 236.898438 194.027344 C 241.46875 191.945312 244.273438 188.015625 244.472656 184.183594 C 244.605469 182.296875 243.960938 180.398438 243.257812 179.394531 C 242.902344 178.882812 242.679688 178.625 242.398438 178.414062 C 242.308594 178.160156 241.089844 178.214844 240.007812 178.464844 C 237.703125 178.921875 235.195312 179.886719 232.773438 180.925781 C 231.546875 181.441406 230.339844 182.027344 229.15625 182.652344 C 228.011719 183.332031 226.734375 183.875 225.941406 185.003906 " fill-opacity="1" fill-rule="nonzero"/><path fill="#ba9563" d="M 204.820312 224.078125 L 166.59375 224.078125 C 166.136719 224.078125 165.769531 223.707031 165.769531 223.253906 L 165.769531 218.3125 C 165.769531 217.859375 166.136719 217.488281 166.59375 217.488281 L 204.820312 217.488281 C 205.277344 217.488281 205.644531 217.859375 205.644531 218.3125 L 205.644531 223.253906 C 205.644531 223.707031 205.277344 224.078125 204.820312 224.078125 " fill-opacity="1" fill-rule="nonzero"/><g clip-path="url(#id3)"><path fill="#ffffff" d="M 183.089844 156.914062 C 184.664062 152.566406 191.871094 149.726562 186.683594 142.472656 C 182.933594 137.226562 175.410156 136.125 171.316406 131.199219 C 167.710938 126.867188 167.046875 118.527344 168.273438 114.058594 C 172.050781 100.269531 190.992188 100.9375 188.15625 85.742188 C 188.296875 86.496094 194.335938 94.664062 185.082031 102.875 C 178.039062 109.125 176.785156 118.640625 179.566406 123.925781 C 182.992188 130.433594 193.140625 131.496094 193.527344 144.589844 C 193.742188 151.734375 187.417969 152.824219 183.089844 156.914062 " fill-opacity="1" fill-rule="nonzero"/></g><g clip-path="url(#id4)"><path fill="#ba9563" d="M 29.117188 196.171875 C 29.117188 205.476562 34.996094 213.042969 42.242188 213.042969 C 43.132812 213.042969 44 212.9375 44.839844 212.699219 C 44.816406 212.539062 44.816406 212.382812 44.867188 212.25 C 45.472656 210.667969 45.757812 208.929688 45.757812 206.953125 C 45.757812 201.601562 43.6875 199.019531 41.480469 196.253906 C 39.355469 193.589844 37.148438 190.851562 37.148438 185.421875 C 37.148438 183.46875 37.414062 181.808594 37.988281 180.226562 C 32.84375 182.496094 29.117188 188.792969 29.117188 196.171875 Z M 29.117188 196.171875 " fill-opacity="1" fill-rule="nonzero"/></g><g clip-path="url(#id5)"><path fill="#ba9563" d="M 42.242188 179.304688 C 41.453125 179.304688 40.695312 179.386719 39.957031 179.570312 C 39.957031 179.597656 39.933594 179.621094 39.933594 179.621094 C 39.09375 181.335938 38.726562 183.179688 38.726562 185.394531 C 38.726562 190.242188 40.5625 192.5625 42.714844 195.226562 C 44.894531 197.9375 47.335938 200.996094 47.335938 206.902344 C 47.335938 208.773438 47.097656 210.457031 46.601562 212.039062 C 51.691406 209.773438 55.367188 203.5 55.367188 196.171875 C 55.367188 186.871094 49.488281 179.304688 42.242188 179.304688 Z M 42.242188 179.304688 " fill-opacity="1" fill-rule="nonzero"/></g><g fill="#ffffff" fill-opacity="1"><g transform="translate(78.902583, 120.196048)"><g><path d="M -25.621094 -22.558594 L 1.953125 -2.710938 L 4.910156 -6.820312 L -7.375 -15.660156 C -6.398438 -17.015625 -5.671875 -18.292969 -5.238281 -19.523438 C -4.800781 -20.753906 -4.699219 -21.964844 -4.933594 -23.164062 C -5.164062 -24.359375 -5.699219 -25.578125 -6.644531 -26.773438 C -7.585938 -27.964844 -8.902344 -29.171875 -10.683594 -30.453125 C -12.375 -31.671875 -13.980469 -32.570312 -15.410156 -33.082031 C -16.839844 -33.597656 -18.167969 -33.71875 -19.375 -33.558594 C -20.542969 -33.367188 -21.660156 -32.886719 -22.730469 -32.113281 C -23.757812 -31.3125 -24.78125 -30.246094 -25.757812 -28.890625 L -29.445312 -23.765625 Z M -9.875 -17.460938 L -23.214844 -27.0625 C -22.667969 -27.824219 -22 -28.308594 -21.25 -28.542969 C -20.460938 -28.746094 -19.679688 -28.761719 -18.871094 -28.628906 C -18.054688 -28.425781 -17.183594 -28.121094 -16.328125 -27.699219 C -15.460938 -27.203125 -14.597656 -26.710938 -13.792969 -26.132812 C -12.945312 -25.519531 -12.160156 -24.828125 -11.457031 -24.191406 C -10.742188 -23.488281 -10.175781 -22.757812 -9.765625 -22.074219 C -9.34375 -21.320312 -9.109375 -20.574219 -9.09375 -19.792969 C -9.078125 -19.007812 -9.324219 -18.222656 -9.875 -17.460938 Z M -9.875 -17.460938 "/></g></g></g><g fill="#ffffff" fill-opacity="1"><g transform="translate(94.548405, 99.719804)"><g><path d="M -18.980469 -23.65625 L 1.886719 -1.800781 L 10.078125 -9.621094 L 8.347656 -11.433594 L 3.820312 -7.109375 L -5.769531 -17.148438 L -3.050781 -19.746094 L -3.875 -22.421875 L -7.496094 -18.960938 L -13.589844 -25.339844 L -9.964844 -28.800781 L -10.789062 -31.476562 Z M -18.980469 -23.65625 "/></g></g></g><g fill="#ffffff" fill-opacity="1"><g transform="translate(110.198835, 85.264195)"><g><path d="M -11.710938 -23.960938 L 2.792969 -1.832031 L 7.027344 -4.605469 L 0.132812 -15.125 C 0.394531 -15.296875 0.570312 -15.410156 0.714844 -15.570312 L 10.171875 -6.664062 L 14.402344 -9.441406 L 4.085938 -19.089844 C 4.660156 -20.214844 4.871094 -21.414062 4.667969 -22.777344 C 4.445312 -24.066406 3.820312 -25.589844 2.675781 -27.335938 C 1.761719 -28.734375 0.84375 -29.753906 -0.09375 -30.511719 C -1.027344 -31.273438 -1.996094 -31.699219 -2.976562 -31.867188 C -3.960938 -32.035156 -5.003906 -31.914062 -6.089844 -31.574219 C -7.179688 -31.234375 -8.3125 -30.679688 -9.535156 -29.878906 L -14.816406 -26.417969 Z M -1.210938 -17.175781 L -8.21875 -27.871094 C -7.492188 -28.285156 -6.8125 -28.480469 -6.175781 -28.460938 C -5.539062 -28.441406 -4.886719 -28.308594 -4.28125 -27.957031 C -3.675781 -27.601562 -3.128906 -27.148438 -2.640625 -26.597656 C -2.15625 -26.042969 -1.636719 -25.445312 -1.210938 -24.789062 C -0.75 -24.09375 -0.410156 -23.378906 -0.0976562 -22.710938 C 0.214844 -22.042969 0.414062 -21.363281 0.496094 -20.664062 C 0.578125 -19.96875 0.441406 -19.320312 0.207031 -18.730469 C -0.03125 -18.136719 -0.511719 -17.632812 -1.210938 -17.175781 Z M -1.210938 -17.175781 "/></g></g></g><g fill="#ffffff" fill-opacity="1"><g transform="translate(131.558589, 72.105686)"><g><path d="M -9.304688 -28.867188 L 2.40625 -1.011719 L 12.84375 -5.402344 L 11.875 -7.710938 L 6.101562 -5.28125 L 0.722656 -18.078125 L 4.183594 -19.535156 L 4.367188 -22.332031 L -0.25 -20.386719 L -3.667969 -28.519531 L 0.949219 -30.460938 L 1.132812 -33.253906 Z M -9.304688 -28.867188 "/></g></g></g><g fill="#ffffff" fill-opacity="1"><g transform="translate(151.682748, 64.239076)"><g><path d="M 0.660156 -4.015625 L 1.523438 -0.359375 L 12.542969 -2.96875 L 10.75 -5.117188 L 6.429688 -4.097656 L 6.453125 -28.714844 L 5.585938 -32.371094 L -5.433594 -29.765625 L -3.636719 -27.617188 L 0.679688 -28.636719 Z M 0.660156 -4.015625 "/></g></g></g><g fill="#ffffff" fill-opacity="1"><g transform="translate(172.149754, 60.041112)"><g/></g></g><g fill="#ffffff" fill-opacity="1"><g transform="translate(188.899628, 58.906017)"><g><path d="M 11.972656 0.839844 C 12.808594 0.898438 13.648438 0.851562 14.5 0.597656 L 14.761719 -3.097656 C 13.902344 -2.058594 13.035156 -1.597656 12.148438 -1.660156 C 11.109375 -1.730469 10.261719 -2.367188 9.621094 -3.667969 C 9.34375 -4.15625 9.082031 -4.910156 8.941406 -5.910156 C 8.75 -6.917969 8.625 -8.078125 8.558594 -9.390625 C 8.492188 -10.703125 8.488281 -12.117188 8.546875 -13.683594 C 8.550781 -15.25 8.660156 -16.8125 8.773438 -18.425781 C 8.882812 -19.988281 8.988281 -21.5 9.199219 -23 C 9.359375 -24.507812 9.5625 -25.90625 9.808594 -27.195312 C 10.054688 -28.488281 10.34375 -29.617188 10.675781 -30.589844 C 10.949219 -31.511719 11.3125 -32.21875 11.660156 -32.714844 C 12.472656 -33.863281 13.402344 -34.425781 14.441406 -34.351562 C 15.328125 -34.289062 16.121094 -33.660156 16.828125 -32.5625 L 17.089844 -36.257812 C 16.273438 -36.578125 15.453125 -36.792969 14.617188 -36.851562 C 12.640625 -36.988281 10.945312 -36.691406 9.59375 -36.050781 C 8.183594 -35.367188 7.0625 -34.292969 6.121094 -32.792969 C 5.175781 -31.289062 4.464844 -29.351562 3.988281 -27.027344 C 3.457031 -24.660156 3.105469 -21.910156 2.882812 -18.734375 C 2.65625 -15.507812 2.621094 -12.738281 2.820312 -10.371094 C 2.964844 -7.953125 3.402344 -5.988281 4.125 -4.367188 C 4.796875 -2.75 5.753906 -1.480469 7.054688 -0.65625 C 8.355469 0.21875 9.996094 0.703125 11.972656 0.839844 Z M 11.972656 0.839844 "/></g></g></g><g fill="#ffffff" fill-opacity="1"><g transform="translate(210.501813, 60.675214)"><g><path d="M 10.632812 2.867188 C 12.042969 3.246094 13.355469 3.386719 14.652344 3.195312 C 15.894531 2.988281 17.070312 2.441406 18.191406 1.5 C 19.246094 0.59375 20.257812 -0.753906 21.164062 -2.507812 C 22.066406 -4.265625 22.945312 -6.515625 23.691406 -9.285156 C 24.425781 -12.007812 24.785156 -14.34375 24.886719 -16.316406 C 24.984375 -18.289062 24.789062 -19.964844 24.34375 -21.328125 C 23.835938 -22.652344 23.097656 -23.714844 22.125 -24.519531 C 21.101562 -25.335938 19.910156 -25.925781 18.5 -26.308594 C 17.085938 -26.6875 15.710938 -26.789062 14.464844 -26.585938 C 13.171875 -26.394531 11.996094 -25.84375 10.941406 -24.941406 C 9.824219 -24 8.808594 -22.648438 7.902344 -20.894531 C 7 -19.140625 6.183594 -16.925781 5.453125 -14.203125 C 4.703125 -11.433594 4.28125 -9.0625 4.179688 -7.089844 C 4.082031 -5.117188 4.277344 -3.441406 4.785156 -2.113281 C 5.230469 -0.753906 5.96875 0.3125 6.992188 1.128906 C 7.964844 1.929688 9.222656 2.488281 10.632812 2.867188 Z M 11.285156 0.449219 C 10.578125 0.257812 10.003906 -0.222656 9.691406 -1.0625 C 9.363281 -1.851562 9.15625 -2.882812 9.101562 -4.085938 C 9.046875 -5.289062 9.136719 -6.617188 9.363281 -8.070312 C 9.542969 -9.535156 9.902344 -11.058594 10.308594 -12.570312 C 10.714844 -14.082031 11.175781 -15.582031 11.78125 -17.039062 C 12.378906 -18.445312 12.984375 -19.6875 13.664062 -20.800781 C 14.328125 -21.863281 15.039062 -22.699219 15.734375 -23.269531 C 16.425781 -23.839844 17.140625 -24.078125 17.847656 -23.890625 C 18.5 -23.710938 18.996094 -23.148438 19.3125 -22.304688 C 19.625 -21.464844 19.820312 -20.382812 19.847656 -19.078125 C 19.875 -17.777344 19.773438 -16.398438 19.566406 -14.832031 C 19.359375 -13.265625 19.039062 -11.675781 18.632812 -10.164062 C 18.222656 -8.652344 17.742188 -7.269531 17.210938 -5.898438 C 16.628906 -4.542969 16.039062 -3.351562 15.386719 -2.335938 C 14.734375 -1.324219 14.050781 -0.589844 13.371094 -0.0703125 C 12.675781 0.5 11.988281 0.636719 11.285156 0.449219 Z M 11.285156 0.449219 "/></g></g></g><g fill="#ffffff" fill-opacity="1"><g transform="translate(236.930568, 68.679966)"><g><path d="M 15.617188 -26 L 2.34375 1.144531 L 6.890625 3.371094 L 14.089844 -11.351562 L 17.464844 -9.703125 L 19.691406 -11.402344 L 15.191406 -13.601562 L 19.0625 -21.527344 L 23.566406 -19.324219 L 25.789062 -21.027344 Z M 15.617188 -26 "/></g></g></g><g fill="#ffffff" fill-opacity="1"><g transform="translate(256.052251, 78.597764)"><g><path d="M 19.773438 -23 L 2.117188 1.523438 L 6.226562 4.480469 L 15.800781 -8.816406 L 18.847656 -6.621094 L 21.328125 -7.921875 L 17.261719 -10.851562 L 22.417969 -18.007812 L 26.484375 -15.082031 L 28.960938 -16.382812 Z M 19.773438 -23 "/></g></g></g><g fill="#ffffff" fill-opacity="1"><g transform="translate(273.230768, 91.593906)"><g><path d="M 23.363281 -19.339844 L 1.832031 1.859375 L 9.777344 9.929688 L 11.5625 8.171875 L 7.167969 3.707031 L 17.058594 -6.03125 L 19.695312 -3.351562 L 22.359375 -4.21875 L 18.84375 -7.789062 L 25.128906 -13.976562 L 28.644531 -10.40625 L 31.308594 -11.269531 Z M 23.363281 -19.339844 "/></g></g></g><g fill="#ffffff" fill-opacity="1"><g transform="translate(287.975505, 107.297214)"><g><path d="M 26.285156 -15.128906 L 1.492188 2.140625 L 7.964844 11.433594 L 10.019531 10 L 6.441406 4.863281 L 17.832031 -3.070312 L 19.980469 0.0117188 L 22.75 -0.394531 L 19.886719 -4.503906 L 27.125 -9.546875 L 29.988281 -5.433594 L 32.757812 -5.839844 Z M 26.285156 -15.128906 "/></g></g></g><g fill="#ba9563" fill-opacity="1"><g transform="translate(79.150817, 289.292774)"><g><path d="M 7.125 -1.84375 L 2.859375 2.703125 L 1.34375 1.265625 L 12.25 -10.3125 L 16.53125 -6.28125 C 17.789062 -5.09375 18.472656 -3.835938 18.578125 -2.515625 C 18.691406 -1.191406 18.25 0 17.25 1.0625 C 16.1875 2.1875 15.015625 2.71875 13.734375 2.65625 C 12.460938 2.601562 11.171875 1.957031 9.859375 0.71875 Z M 8.296875 -3.078125 L 11.0625 -0.484375 C 11.875 0.273438 12.675781 0.664062 13.46875 0.6875 C 14.269531 0.71875 15.015625 0.367188 15.703125 -0.359375 C 16.347656 -1.046875 16.644531 -1.800781 16.59375 -2.625 C 16.550781 -3.445312 16.160156 -4.226562 15.421875 -4.96875 L 12.578125 -7.625 Z M 8.296875 -3.078125 "/></g></g></g><g fill="#ba9563" fill-opacity="1"><g transform="translate(92.086265, 301.179923)"><g><path d="M 10.015625 -0.5625 L 7 -2.796875 L 3.15625 2.359375 L 1.46875 1.09375 L 10.96875 -11.65625 L 15.1875 -8.515625 C 16.632812 -7.429688 17.5 -6.273438 17.78125 -5.046875 C 18.0625 -3.816406 17.738281 -2.582031 16.8125 -1.34375 C 16.226562 -0.550781 15.5 -0.0195312 14.625 0.25 C 13.757812 0.53125 12.832031 0.523438 11.84375 0.234375 L 10.8125 7.90625 L 10.734375 8 L 8.9375 6.65625 Z M 8.03125 -4.1875 L 10.625 -2.265625 C 11.457031 -1.640625 12.28125 -1.359375 13.09375 -1.421875 C 13.90625 -1.484375 14.582031 -1.878906 15.125 -2.609375 C 15.707031 -3.390625 15.921875 -4.164062 15.765625 -4.9375 C 15.609375 -5.707031 15.085938 -6.425781 14.203125 -7.09375 L 11.625 -9.015625 Z M 8.03125 -4.1875 "/></g></g></g><g fill="#ba9563" fill-opacity="1"><g transform="translate(105.999642, 311.275951)"><g><path d="M 13.078125 -0.859375 L 7.109375 -4.359375 L 4.265625 0.5 L 11.1875 4.5625 L 10.3125 6.046875 L 1.59375 0.9375 L 9.640625 -12.78125 L 18.265625 -7.734375 L 17.390625 -6.25 L 10.5625 -10.25 L 7.96875 -5.828125 L 13.9375 -2.328125 Z M 13.078125 -0.859375 "/></g></g></g><g fill="#ba9563" fill-opacity="1"><g transform="translate(120.074938, 319.51274)"><g><path d="M 10.390625 -12.875 L 10.125 1.109375 L 19.953125 -8.828125 L 22.46875 -7.765625 L 16.28125 6.890625 L 14.34375 6.0625 L 16.75 0.359375 L 19.546875 -5.71875 L 9.71875 4.109375 L 8.25 3.484375 L 8.4375 -10.375 L 6.03125 -4.171875 L 3.625 1.53125 L 1.703125 0.71875 L 7.890625 -13.9375 Z M 10.390625 -12.875 "/></g></g></g><g fill="#ba9563" fill-opacity="1"><g transform="translate(141.378911, 327.934321)"><g><path d="M 3.921875 1.1875 L 1.921875 0.578125 L 6.515625 -14.65625 L 8.515625 -14.046875 Z M 3.921875 1.1875 "/></g></g></g><g fill="#ba9563" fill-opacity="1"><g transform="translate(150.312695, 330.676923)"><g><path d="M 16 -12.9375 L 13.8125 -2.34375 C 13.5 -0.875 12.785156 0.226562 11.671875 0.96875 C 10.554688 1.707031 9.207031 1.976562 7.625 1.78125 L 7.0625 1.6875 C 5.363281 1.332031 4.101562 0.59375 3.28125 -0.53125 C 2.457031 -1.664062 2.207031 -3.035156 2.53125 -4.640625 L 4.71875 -15.265625 L 6.75 -14.84375 L 4.578125 -4.296875 C 4.335938 -3.160156 4.460938 -2.21875 4.953125 -1.46875 C 5.441406 -0.726562 6.257812 -0.238281 7.40625 0 C 8.570312 0.238281 9.53125 0.113281 10.28125 -0.375 C 11.03125 -0.863281 11.519531 -1.671875 11.75 -2.796875 L 13.9375 -13.359375 Z M 16 -12.9375 "/></g></g></g><g fill="#ba9563" fill-opacity="1"><g transform="translate(168.101477, 334.269982)"><g><path d="M 5.609375 -15.5625 L 9.9375 -2.265625 L 15.984375 -14.875 L 18.6875 -14.6875 L 17.625 1.1875 L 15.546875 1.046875 L 15.96875 -5.125 L 16.609375 -11.78125 L 10.515625 0.703125 L 8.9375 0.59375 L 4.578125 -12.5625 L 4.34375 -5.90625 L 3.921875 0.265625 L 1.84375 0.125 L 2.90625 -15.75 Z M 5.609375 -15.5625 "/></g></g></g><g fill="#ba9563" fill-opacity="1"><g transform="translate(190.972909, 335.264613)"><g/></g></g><g fill="#ba9563" fill-opacity="1"><g transform="translate(199.778944, 335.005764)"><g><path d="M 12.9375 -9.171875 C 13.132812 -7.648438 13.054688 -6.304688 12.703125 -5.140625 C 12.359375 -3.972656 11.789062 -3.023438 11 -2.296875 L 14.109375 -0.453125 L 12.859375 1.046875 L 9.1875 -1.171875 C 8.695312 -0.972656 8.160156 -0.832031 7.578125 -0.75 C 6.328125 -0.59375 5.179688 -0.753906 4.140625 -1.234375 C 3.109375 -1.722656 2.253906 -2.5 1.578125 -3.5625 C 0.898438 -4.625 0.453125 -5.898438 0.234375 -7.390625 L 0.09375 -8.53125 C -0.101562 -10.039062 -0.015625 -11.410156 0.359375 -12.640625 C 0.742188 -13.867188 1.378906 -14.851562 2.265625 -15.59375 C 3.148438 -16.34375 4.210938 -16.796875 5.453125 -16.953125 C 6.722656 -17.117188 7.878906 -16.957031 8.921875 -16.46875 C 9.960938 -15.976562 10.820312 -15.191406 11.5 -14.109375 C 12.175781 -13.023438 12.613281 -11.71875 12.8125 -10.1875 Z M 10.71875 -9.9375 C 10.46875 -11.789062 9.90625 -13.171875 9.03125 -14.078125 C 8.164062 -14.984375 7.046875 -15.347656 5.671875 -15.171875 C 4.367188 -15.003906 3.40625 -14.367188 2.78125 -13.265625 C 2.15625 -12.171875 1.941406 -10.734375 2.140625 -8.953125 L 2.296875 -7.796875 C 2.523438 -5.992188 3.085938 -4.617188 3.984375 -3.671875 C 4.878906 -2.734375 6 -2.347656 7.34375 -2.515625 C 8.6875 -2.691406 9.660156 -3.316406 10.265625 -4.390625 C 10.878906 -5.460938 11.078125 -6.914062 10.859375 -8.75 Z M 10.71875 -9.9375 "/></g></g></g><g fill="#ba9563" fill-opacity="1"><g transform="translate(218.482195, 332.34612)"><g><path d="M 8.703125 -18.640625 L 11.375 -8.171875 C 11.738281 -6.710938 11.582031 -5.40625 10.90625 -4.25 C 10.238281 -3.09375 9.144531 -2.253906 7.625 -1.734375 L 7.078125 -1.578125 C 5.398438 -1.148438 3.941406 -1.265625 2.703125 -1.921875 C 1.472656 -2.578125 0.648438 -3.695312 0.234375 -5.28125 L -2.453125 -15.78125 L -0.4375 -16.296875 L 2.21875 -5.875 C 2.507812 -4.75 3.035156 -3.957031 3.796875 -3.5 C 4.566406 -3.039062 5.519531 -2.957031 6.65625 -3.25 C 7.8125 -3.539062 8.613281 -4.066406 9.0625 -4.828125 C 9.519531 -5.597656 9.609375 -6.546875 9.328125 -7.671875 L 6.65625 -18.109375 Z M 8.703125 -18.640625 "/></g></g></g><g fill="#ba9563" fill-opacity="1"><g transform="translate(235.865697, 327.688014)"><g><path d="M 8.40625 -7.71875 L 2.203125 -5.3125 L 2.296875 -0.890625 L 0.296875 -0.109375 L 0.1875 -17.125 L 1.90625 -17.796875 L 13.328125 -5.15625 L 11.328125 -4.390625 Z M 2.15625 -7.140625 L 7.203125 -9.09375 L 1.984375 -15.046875 Z M 2.15625 -7.140625 "/></g></g></g><g fill="#ba9563" fill-opacity="1"><g transform="translate(252.565762, 320.942311)"><g><path d="M 2.703125 -3.359375 L 9.40625 -6.84375 L 10.203125 -5.3125 L 1.640625 -0.84375 L -5.703125 -14.953125 L -3.84375 -15.9375 Z M 2.703125 -3.359375 "/></g></g></g><g fill="#ba9563" fill-opacity="1"><g transform="translate(265.947194, 313.697341)"><g><path d="M 3.46875 -2.171875 L 1.6875 -1.0625 L -6.78125 -14.53125 L -5 -15.640625 Z M 3.46875 -2.171875 "/></g></g></g><g fill="#ba9563" fill-opacity="1"><g transform="translate(273.839577, 308.755783)"><g><path d="M 1.703125 -19.0625 L -2.390625 -15.984375 L 6.15625 -4.65625 L 4.5 -3.390625 L -4.046875 -14.71875 L -8.125 -11.640625 L -9.15625 -13.015625 L 0.671875 -20.4375 Z M 1.703125 -19.0625 "/></g></g></g><g fill="#ba9563" fill-opacity="1"><g transform="translate(287.115007, 298.503113)"><g><path d="M -0.5625 -10.359375 L -3.046875 -19.015625 L -1.3125 -20.65625 L 1.546875 -9.640625 L 5.625 -5.328125 L 4.09375 -3.875 L 0.015625 -8.1875 L -10.8125 -11.671875 L -9.0625 -13.328125 Z M -0.5625 -10.359375 "/></g></g></g><g clip-path="url(#id6)"><path fill="#ba9563" d="M 319.597656 196.171875 C 319.597656 205.476562 325.476562 213.042969 332.722656 213.042969 C 333.617188 213.042969 334.480469 212.9375 335.320312 212.699219 C 335.296875 212.539062 335.296875 212.382812 335.347656 212.25 C 335.953125 210.667969 336.242188 208.929688 336.242188 206.953125 C 336.242188 201.601562 334.167969 199.019531 331.960938 196.253906 C 329.835938 193.589844 327.628906 190.851562 327.628906 185.421875 C 327.628906 183.46875 327.894531 181.808594 328.46875 180.226562 C 323.324219 182.496094 319.597656 188.792969 319.597656 196.171875 Z M 319.597656 196.171875 " fill-opacity="1" fill-rule="nonzero"/></g><g clip-path="url(#id7)"><path fill="#ba9563" d="M 332.722656 179.304688 C 331.933594 179.304688 331.175781 179.386719 330.4375 179.570312 C 330.4375 179.597656 330.414062 179.621094 330.414062 179.621094 C 329.574219 181.335938 329.207031 183.179688 329.207031 185.394531 C 329.207031 190.242188 331.042969 192.5625 333.195312 195.226562 C 335.375 197.9375 337.816406 200.996094 337.816406 206.902344 C 337.816406 208.773438 337.578125 210.457031 337.082031 212.039062 C 342.171875 209.773438 345.847656 203.5 345.847656 196.171875 C 345.847656 186.871094 339.96875 179.304688 332.722656 179.304688 Z M 332.722656 179.304688 " fill-opacity="1" fill-rule="nonzero"/></g><g fill="#ba9563" fill-opacity="1"><g transform="translate(135.089562, 264.877626)"><g><path d="M 0.703125 0 L 0.703125 -1.25 L 2.3125 -1.53125 L 2.3125 -12.890625 L 0.703125 -13.15625 L 0.703125 -14.421875 L 11.78125 -14.421875 L 11.78125 -10.953125 L 10.09375 -10.953125 L 9.9375 -12.890625 L 4.265625 -12.890625 L 4.265625 -8.21875 L 9.78125 -8.21875 L 9.78125 -6.6875 L 4.265625 -6.6875 L 4.265625 -1.53125 L 10.0625 -1.53125 L 10.21875 -3.453125 L 11.890625 -3.453125 L 11.890625 0 Z M 0.703125 0 "/></g></g></g><g fill="#ba9563" fill-opacity="1"><g transform="translate(150.187519, 264.877626)"><g><path d="M 11.140625 -10.15625 L 9.671875 -10.15625 L 9.296875 -12.21875 C 9.003906 -12.46875 8.609375 -12.675781 8.109375 -12.84375 C 7.617188 -13.007812 7.046875 -13.09375 6.390625 -13.09375 C 5.347656 -13.09375 4.550781 -12.875 4 -12.4375 C 3.445312 -12 3.171875 -11.425781 3.171875 -10.71875 C 3.171875 -10.09375 3.453125 -9.566406 4.015625 -9.140625 C 4.578125 -8.722656 5.488281 -8.359375 6.75 -8.046875 C 8.269531 -7.671875 9.421875 -7.113281 10.203125 -6.375 C 10.992188 -5.644531 11.390625 -4.738281 11.390625 -3.65625 C 11.390625 -2.488281 10.914062 -1.550781 9.96875 -0.84375 C 9.03125 -0.144531 7.796875 0.203125 6.265625 0.203125 C 5.148438 0.203125 4.160156 0.0234375 3.296875 -0.328125 C 2.441406 -0.691406 1.742188 -1.171875 1.203125 -1.765625 L 1.203125 -4.453125 L 2.65625 -4.453125 L 3.046875 -2.375 C 3.421875 -2.0625 3.867188 -1.804688 4.390625 -1.609375 C 4.910156 -1.410156 5.535156 -1.3125 6.265625 -1.3125 C 7.242188 -1.3125 8.019531 -1.519531 8.59375 -1.9375 C 9.164062 -2.351562 9.453125 -2.921875 9.453125 -3.640625 C 9.453125 -4.296875 9.203125 -4.847656 8.703125 -5.296875 C 8.210938 -5.742188 7.335938 -6.117188 6.078125 -6.421875 C 4.554688 -6.785156 3.363281 -7.316406 2.5 -8.015625 C 1.644531 -8.722656 1.21875 -9.613281 1.21875 -10.6875 C 1.21875 -11.8125 1.695312 -12.75 2.65625 -13.5 C 3.613281 -14.25 4.859375 -14.625 6.390625 -14.625 C 7.398438 -14.625 8.316406 -14.453125 9.140625 -14.109375 C 9.972656 -13.765625 10.640625 -13.34375 11.140625 -12.84375 Z M 11.140625 -10.15625 "/></g></g></g><g fill="#ba9563" fill-opacity="1"><g transform="translate(164.701471, 264.877626)"><g><path d="M 12.34375 -14.421875 L 12.34375 -11.234375 L 10.6875 -11.234375 L 10.53125 -12.890625 L 7.34375 -12.890625 L 7.34375 -1.53125 L 8.953125 -1.25 L 8.953125 0 L 3.765625 0 L 3.765625 -1.25 L 5.390625 -1.53125 L 5.390625 -12.890625 L 2.171875 -12.890625 L 2.046875 -11.234375 L 0.359375 -11.234375 L 0.359375 -14.421875 Z M 12.34375 -14.421875 "/></g></g></g><g fill="#ba9563" fill-opacity="1"><g transform="translate(179.581663, 264.877626)"><g><path d="M 3.390625 0 L 1.4375 0 L 1.4375 -2 L 3.390625 -2 Z M 3.390625 0 "/></g></g></g><g fill="#ba9563" fill-opacity="1"><g transform="translate(186.632123, 264.877626)"><g/></g></g><g fill="#ba9563" fill-opacity="1"><g transform="translate(193.840959, 264.877626)"><g><path d="M 1.203125 -1.25 L 3.421875 -1.53125 L 3.421875 -12.328125 L 1.15625 -12.296875 L 1.15625 -13.5 L 5.375 -14.421875 L 5.375 -1.53125 L 7.59375 -1.25 L 7.59375 0 L 1.203125 0 Z M 1.203125 -1.25 "/></g></g></g><g fill="#ba9563" fill-opacity="1"><g transform="translate(204.365794, 264.877626)"><g><path d="M 5.0625 -1.3125 C 6 -1.3125 6.738281 -1.671875 7.28125 -2.390625 C 7.820312 -3.109375 8.101562 -4.265625 8.125 -5.859375 L 8.09375 -5.90625 C 7.820312 -5.457031 7.445312 -5.113281 6.96875 -4.875 C 6.5 -4.644531 5.96875 -4.53125 5.375 -4.53125 C 3.96875 -4.53125 2.859375 -4.960938 2.046875 -5.828125 C 1.234375 -6.691406 0.828125 -7.910156 0.828125 -9.484375 C 0.828125 -10.992188 1.257812 -12.226562 2.125 -13.1875 C 3 -14.144531 4.054688 -14.625 5.296875 -14.625 C 6.804688 -14.625 7.992188 -14.148438 8.859375 -13.203125 C 9.722656 -12.265625 10.15625 -10.878906 10.15625 -9.046875 L 10.15625 -6.4375 C 10.15625 -4.1875 9.691406 -2.515625 8.765625 -1.421875 C 7.835938 -0.335938 6.601562 0.203125 5.0625 0.203125 C 4.5625 0.203125 4.046875 0.15625 3.515625 0.0625 C 2.992188 -0.03125 2.523438 -0.175781 2.109375 -0.375 L 2.40625 -1.859375 C 2.8125 -1.660156 3.222656 -1.519531 3.640625 -1.4375 C 4.054688 -1.351562 4.53125 -1.3125 5.0625 -1.3125 Z M 5.375 -6.0625 C 6.09375 -6.0625 6.691406 -6.210938 7.171875 -6.515625 C 7.648438 -6.828125 7.992188 -7.226562 8.203125 -7.71875 L 8.203125 -9.234375 C 8.203125 -10.515625 7.957031 -11.476562 7.46875 -12.125 C 6.988281 -12.769531 6.285156 -13.09375 5.359375 -13.09375 C 4.640625 -13.09375 4.03125 -12.753906 3.53125 -12.078125 C 3.03125 -11.410156 2.78125 -10.546875 2.78125 -9.484375 C 2.78125 -8.453125 3.007812 -7.625 3.46875 -7 C 3.9375 -6.375 4.570312 -6.0625 5.375 -6.0625 Z M 5.375 -6.0625 "/></g></g></g><g fill="#ba9563" fill-opacity="1"><g transform="translate(217.959172, 264.877626)"><g><path d="M 5.0625 -1.3125 C 6 -1.3125 6.738281 -1.671875 7.28125 -2.390625 C 7.820312 -3.109375 8.101562 -4.265625 8.125 -5.859375 L 8.09375 -5.90625 C 7.820312 -5.457031 7.445312 -5.113281 6.96875 -4.875 C 6.5 -4.644531 5.96875 -4.53125 5.375 -4.53125 C 3.96875 -4.53125 2.859375 -4.960938 2.046875 -5.828125 C 1.234375 -6.691406 0.828125 -7.910156 0.828125 -9.484375 C 0.828125 -10.992188 1.257812 -12.226562 2.125 -13.1875 C 3 -14.144531 4.054688 -14.625 5.296875 -14.625 C 6.804688 -14.625 7.992188 -14.148438 8.859375 -13.203125 C 9.722656 -12.265625 10.15625 -10.878906 10.15625 -9.046875 L 10.15625 -6.4375 C 10.15625 -4.1875 9.691406 -2.515625 8.765625 -1.421875 C 7.835938 -0.335938 6.601562 0.203125 5.0625 0.203125 C 4.5625 0.203125 4.046875 0.15625 3.515625 0.0625 C 2.992188 -0.03125 2.523438 -0.175781 2.109375 -0.375 L 2.40625 -1.859375 C 2.8125 -1.660156 3.222656 -1.519531 3.640625 -1.4375 C 4.054688 -1.351562 4.53125 -1.3125 5.0625 -1.3125 Z M 5.375 -6.0625 C 6.09375 -6.0625 6.691406 -6.210938 7.171875 -6.515625 C 7.648438 -6.828125 7.992188 -7.226562 8.203125 -7.71875 L 8.203125 -9.234375 C 8.203125 -10.515625 7.957031 -11.476562 7.46875 -12.125 C 6.988281 -12.769531 6.285156 -13.09375 5.359375 -13.09375 C 4.640625 -13.09375 4.03125 -12.753906 3.53125 -12.078125 C 3.03125 -11.410156 2.78125 -10.546875 2.78125 -9.484375 C 2.78125 -8.453125 3.007812 -7.625 3.46875 -7 C 3.9375 -6.375 4.570312 -6.0625 5.375 -6.0625 Z M 5.375 -6.0625 "/></g></g></g><g fill="#ba9563" fill-opacity="1"><g transform="translate(231.552551, 264.877626)"><g><path d="M 1.203125 -1.25 L 3.421875 -1.53125 L 3.421875 -12.328125 L 1.15625 -12.296875 L 1.15625 -13.5 L 5.375 -14.421875 L 5.375 -1.53125 L 7.59375 -1.25 L 7.59375 0 L 1.203125 0 Z M 1.203125 -1.25 "/></g></g></g></svg>